<svg xmlns="http://www.w3.org/2000/svg" viewBox="0 0 1000 1000" width="1000" height="1000">
	<defs>
		<clipPath clipPathUnits="userSpaceOnUse" id="cp1">
			<path d="M0 0L1000 0L1000 1000L0 1000Z" />
		</clipPath>
	</defs>
	<style>
		tspan { white-space:pre }
		.shp0 { fill: #200d0d } 
		.shp1 { fill: #2e1212 } 
	</style>
	<g id="Page 1" clip-path="url(#cp1)">
		<path id="Path 5" class="shp0" d="M774.1 470.78C773.17 472.16 752.48 502.33 707.02 521.73C683.09 531.97 652.35 539.23 613.98 537.73C610.92 537.6 607.82 537.42 604.67 537.2C535.42 531.08 499.98 488.99 499.98 488.99C499.98 488.99 464.53 531.08 395.33 537.2C392.01 537.42 388.73 537.6 385.54 537.73C348.01 539.15 317.79 532.15 294.13 522.22C247.88 502.82 226.83 472.16 225.9 470.78C227.14 471.4 253.68 484.92 303.39 475.17C279.16 477.83 270.65 460.72 270.21 459.71C272.16 459.97 324.26 467.64 346.02 450.8C333.3 453.02 323.86 446.9 323.86 446.9C323.86 446.9 378.14 430.29 424.66 402.6C471.18 374.91 499.98 425.86 499.98 425.86C499.98 425.86 528.78 374.91 575.3 402.6C621.82 430.29 676.09 446.9 676.09 446.9C676.09 446.9 666.7 453.02 653.94 450.8C675.7 467.64 727.84 459.97 729.79 459.71C729.35 460.72 720.8 477.83 696.61 475.17C746.32 484.92 772.86 471.4 774.1 470.78ZM730.01 606.76C728.55 593.46 721.15 596.43 721.15 596.43C721.15 596.43 726.34 617.48 724.47 673.97C722.66 728.69 701.48 757.09 700.15 758.81C700.33 757.75 701.75 749.2 698.25 747.83C686.81 782.87 619.25 853.05 583.81 876.31C592.31 866.34 586.77 854.16 586.77 854.16C586.77 854.16 526.96 915.44 499.98 922.08C487.44 888.5 410.66 855.62 410.66 855.62C410.66 855.62 407.69 865.95 410.66 874.45C357.85 846.41 301 749.64 301 749.64C301 749.64 296.57 756.29 296.57 766.66C264.05 716.41 277.34 600.51 277.34 600.51C277.34 600.51 271.45 601.62 266.26 607.51C271.8 548.8 294.13 522.22 294.13 522.22C317.79 532.15 348.01 539.15 385.54 537.73C392.45 551.24 403.52 569.63 417.04 580.71C429.8 591.21 448.67 591.38 461.21 580.62C482.3 562.5 463.43 533.87 463.43 533.87L532.1 533.87C520.23 547.03 519.39 588.68 555.94 589.26C584.51 589.65 606 553.5 613.98 537.73C652.35 539.23 683.09 531.97 707.02 521.73C731.03 544.29 732.81 579.42 730.01 606.76ZM774.1 470.78C773.17 472.16 752.48 502.33 707.02 521.73C683.09 531.97 652.35 539.23 613.98 537.73C610.92 537.6 607.82 537.42 604.67 537.2C535.42 531.08 499.98 488.99 499.98 488.99C499.98 488.99 464.53 531.08 395.33 537.2C392.01 537.42 388.73 537.6 385.54 537.73C348.01 539.15 317.79 532.15 294.13 522.22C247.88 502.82 226.83 472.16 225.9 470.78C226.97 471.31 245.93 480.97 281.55 478.14C285.54 480.17 289.7 482.12 294.13 483.99C317.79 493.91 348.01 500.95 385.54 499.49C388.73 499.36 392.01 499.18 395.33 499C464.53 492.85 499.98 450.76 499.98 450.76C499.98 450.76 535.42 492.85 604.67 499C607.82 499.18 610.92 499.36 613.98 499.49C652.35 501 683.09 493.78 707.02 483.54C711.05 481.81 714.86 480.04 718.49 478.18C754.12 480.97 773.04 471.31 774.1 470.78ZM724.72 673.97C722.91 728.68 701.73 757.09 700.4 758.81C700.58 757.75 701.99 749.2 698.49 747.83C687.06 782.87 619.5 853.05 584.05 876.31C592.56 866.34 587.02 854.16 587.02 854.16C587.02 854.16 527.21 915.43 500.22 922.08C487.69 888.5 410.9 855.62 410.9 855.62C410.9 855.62 407.93 865.94 410.9 874.45C358.09 846.41 301.25 749.64 301.25 749.64C301.25 749.64 296.82 756.29 296.82 766.66C271.74 727.89 273.91 650 276.21 616.46C278.52 644.95 284.28 674.15 296.82 693.55C296.82 683.18 301.25 676.54 301.25 676.54C301.25 676.54 358.09 773.3 410.9 801.35C407.93 792.84 410.9 782.52 410.9 782.52C410.9 782.52 487.69 815.39 500.22 848.98C527.21 842.33 587.02 781.05 587.02 781.05C587.02 781.05 592.56 793.24 584.05 803.21C619.5 779.95 687.06 709.77 698.49 674.72C701.99 676.09 700.58 684.65 700.4 685.71C701.6 684.11 719.32 660.37 723.84 614.73C724.85 627.09 725.65 646.28 724.72 673.97Z" />
		<path id="Path 6" class="shp1" d="M504.61 429.73C504.61 429.73 525.1 400.94 545.04 409.24C564.98 417.55 597.65 433.06 617.59 433.06L579.93 433.06C579.93 433.06 609.83 443.03 624.23 439.7C608.17 446.33 555.07 469.45 504.61 429.73ZM494.08 429.73C494.08 429.73 473.59 400.94 453.66 409.24C433.72 417.55 401.04 433.06 381.1 433.06L418.76 433.06C418.76 433.06 388.86 443.03 374.46 439.7C390.52 446.33 443.62 469.45 494.08 429.73Z" />
		<path id="Path 7" class="shp1" d="M700.11 576.5C700.11 576.5 714.14 592 704.54 621.54C701.58 614.73 701.22 610.09 697.15 607.88C697.15 619.32 686.45 678.03 649.53 690.21C657.65 681.72 659.86 666.95 659.86 666.95C659.86 666.95 629.59 678.77 626.26 713.84C623.68 662.89 644.36 641.85 649.16 634.09C653.96 626.34 656.91 613.05 656.91 613.05C656.91 613.05 664.29 607.88 662.45 621.54C675.37 620.06 683.12 597.54 683.12 584.99C689.03 592.74 687.92 601.97 687.92 601.97C687.92 601.97 700.48 583.88 700.11 576.5ZM304.11 576.5C304.11 576.5 290.08 592 299.68 621.54C302.63 614.73 303 610.09 307.06 607.88C307.06 619.32 317.77 678.03 354.69 690.21C346.57 681.72 344.35 666.95 344.35 666.95C344.35 666.95 374.63 678.77 377.95 713.84C380.54 662.89 359.86 641.85 355.06 634.09C350.26 626.34 347.31 613.05 347.31 613.05C347.31 613.05 339.92 607.88 341.77 621.54C328.85 620.06 321.09 597.54 321.09 584.99C315.19 592.74 316.29 601.97 316.29 601.97C316.29 601.97 303.74 583.88 304.11 576.5Z" />
		<path id="Path 8" class="shp1" d="M456.43 595.7C477.1 595.7 483.75 576.5 483.75 576.5C483.75 576.5 466.02 613.97 470.09 642.12C473.41 626.71 483.75 619.32 483.75 619.32C483.75 619.32 499.99 665.85 477.1 685.78C516.98 645.17 504.61 622.28 504.61 622.28C504.61 622.28 519.19 629.66 512.55 654.77C531.01 631.88 514.28 593.48 514.28 593.48C514.28 593.48 524.36 615.31 540.61 614.73C533.22 601.6 508.85 570.26 520.67 533.87L473.59 533.87C473.59 533.87 489.93 570.96 456.43 595.7Z" />
	</g>
</svg>